<svg xmlns="http://www.w3.org/2000/svg" width="332" height="704" fill="none">
  <g fill="#00B068" clip-path="url(#a)" filter="url(#b)">
    <rect width="9.159" height="9.159" x="288.949" y="605.248" rx="1" transform="rotate(-180 288.949 605.248)"/>
    <rect width="9.159" height="9.159" x="259.184" y="492.158" rx="1" transform="rotate(-180 259.184 492.158)"/>
    <rect width="4.579" height="4.579" x="220.902" y="548.387" rx="1" transform="rotate(-180 220.902 548.387)"/>
    <rect width="4.579" height="4.579" x="318" y="566.67" rx="1" transform="rotate(-180 318 566.67)"/>
    <rect width="9.159" height="9.159" x="192.957" y="614.263" rx="1" transform="rotate(-180 192.957 614.263)"/>
    <rect width="4.579" height="4.579" x="153" y="527.654" rx="1" transform="rotate(-180 153 527.654)"/>
    <rect width="10.16" height="10.16" x="261.16" y="132.16" rx="1" transform="rotate(-180 261.16 132.16)"/>
    <rect width="10.16" height="10.16" x="220.672" y="21.159" rx="1" transform="rotate(-180 220.672 21.16)"/>
    <rect width="15.24" height="15.24" x="308.672" y="173.24" rx="1" transform="rotate(-180 308.672 173.24)"/>
    <rect width="5.08" height="5.08" x="184.672" y="79.08" rx="1" transform="rotate(-180 184.672 79.08)"/>
    <rect width="5.08" height="5.08" x="325.672" y="99.361" rx="1" transform="rotate(-180 325.672 99.361)"/>
    <rect width="5.08" height="5.08" x="92.08" y="244.427" rx="1" transform="rotate(-180 92.08 244.427)"/>
    <rect width="10.16" height="10.16" x="153.672" y="152.16" rx="1" transform="rotate(-180 153.672 152.16)"/>
    <rect width="5.08" height="5.08" x="112.672" y="56.08" rx="1" transform="rotate(-180 112.672 56.08)"/>
  </g>
  <defs>
    <clipPath id="a">
      <path fill="#fff" d="M6 0h320v704H6z"/>
    </clipPath>
    <filter id="b" width="332" height="716" x="0" y="-6" color-interpolation-filters="sRGB" filterUnits="userSpaceOnUse">
      <feFlood flood-opacity="0" result="BackgroundImageFix"/>
      <feBlend in="SourceGraphic" in2="BackgroundImageFix" result="shape"/>
      <feGaussianBlur result="effect1_foregroundBlur_2113_744" stdDeviation="3"/>
    </filter>
  </defs>
</svg>
