<svg aria-hidden="true" style="position: absolute; width: 0; height: 0; overflow: hidden;" version="1.1" xmlns="http://www.w3.org/2000/svg" xmlns:xlink="http://www.w3.org/1999/xlink">
<defs>
<symbol id="icon-arrow-narrow-right1" viewBox="0 0 32 32">
<path stroke-width="2.6667" stroke-miterlimit="4" stroke-linecap="round" stroke-linejoin="round" d="M5.333 16h21.333"></path>
<path stroke-width="2.6667" stroke-miterlimit="4" stroke-linecap="round" stroke-linejoin="round" d="M18.667 8l8 8-8 8"></path>
</symbol>
<symbol id="icon-arrow-narrow-left" viewBox="0 0 32 32">
<path stroke-width="2.6667" stroke-miterlimit="4" stroke-linecap="round" stroke-linejoin="round" d="M26.667 16h-21.333"></path>
<path stroke-width="2.6667" stroke-miterlimit="4" stroke-linecap="round" stroke-linejoin="round" d="M13.333 24l-8-8 8-8"></path>
</symbol>
<symbol id="icon-button-down" viewBox="0 0 32 32">
<path stroke-width="2" stroke-miterlimit="4" stroke-linecap="round" stroke-linejoin="miter" d="M22 13l-6 6-6-6"></path>
</symbol>
<symbol id="icon-button-up" viewBox="0 0 32 32">
<path stroke-width="2" stroke-miterlimit="4" stroke-linecap="round" stroke-linejoin="miter" d="M22 19l-6-6-6 6"></path>
</symbol>
<symbol id="icon-vector" viewBox="0 0 32 32">
<path stroke-width="3.5556" stroke-miterlimit="4" stroke-linecap="round" stroke-linejoin="round" d="M3.111 28.889l25.778-25.778M28.889 3.111h-24M28.889 3.111v24"></path>
</symbol>
<symbol id="icon-Arrow-1" viewBox="0 0 32 32">
<path d="M1.067 14.933c-0.589 0-1.067 0.478-1.067 1.067s0.478 1.067 1.067 1.067v-2.133zM31.688 16.754c0.417-0.417 0.417-1.092 0-1.508l-6.788-6.788c-0.417-0.417-1.092-0.417-1.508 0s-0.417 1.092 0 1.508l6.034 6.034-6.034 6.034c-0.417 0.417-0.417 1.092 0 1.508s1.092 0.417 1.508 0l6.788-6.788zM1.067 17.067h29.867v-2.133h-29.867v2.133z"></path>
</symbol>
<symbol id="icon-hourglass" viewBox="0 0 32 32">
<path stroke-width="2.6667" stroke-miterlimit="4" stroke-linecap="round" stroke-linejoin="round" d="M24.217 2.667h-16.434c-0.617 0-1.117 0.5-1.117 1.117 0 3.554 1.412 6.962 3.925 9.475l1.626 1.626c0.161 0.161 0.242 0.242 0.3 0.32 0.352 0.473 0.352 1.121 0 1.594-0.058 0.077-0.139 0.158-0.3 0.32l-1.626 1.626c-2.513 2.513-3.925 5.921-3.925 9.475 0 0.617 0.5 1.117 1.117 1.117h16.434c0.617 0 1.117-0.5 1.117-1.117 0-3.554-1.412-6.962-3.925-9.475l-1.626-1.626c-0.161-0.161-0.242-0.242-0.3-0.32-0.353-0.473-0.353-1.121 0-1.594 0.058-0.077 0.139-0.158 0.3-0.32l1.626-1.626c2.513-2.513 3.925-5.921 3.925-9.475 0-0.617-0.5-1.117-1.117-1.117z"></path>
</symbol>
<symbol id="icon-expertise" viewBox="0 0 32 32">
<path stroke-width="2.6667" stroke-miterlimit="4" stroke-linecap="round" stroke-linejoin="round" d="M26.667 28c0-1.861 0-2.791-0.23-3.548-0.517-1.705-1.851-3.039-3.556-3.556-0.757-0.23-1.687-0.23-3.548-0.23h-6.667c-1.861 0-2.791 0-3.548 0.23-1.705 0.517-3.038 1.851-3.556 3.556-0.23 0.757-0.23 1.687-0.23 3.548"></path>
<path stroke-width="2.6667" stroke-miterlimit="4" stroke-linecap="round" stroke-linejoin="round" d="M16 16c3.314 0 6-2.686 6-6s-2.686-6-6-6c-3.314 0-6 2.686-6 6s2.686 6 6 6z"></path>
</symbol>
<symbol id="icon-art" viewBox="0 0 32 32">
<path stroke-width="2.6667" stroke-miterlimit="4" stroke-linecap="round" stroke-linejoin="round" d="M17.037 20.001l-5.037-5.037"></path>
<path stroke-width="2.6667" stroke-miterlimit="4" stroke-linecap="round" stroke-linejoin="round" d="M2.667 29.332c2.667 0 6.144 0.456 7.966-1.367s1.822-4.777 0-6.6c-1.822-1.822-4.777-1.822-6.6 0s0 5.3-1.367 7.967z"></path>
<path stroke-width="2.6667" stroke-miterlimit="4" stroke-linecap="round" stroke-linejoin="round" d="M10.667 21.332c-0.655-0.655-0.983-0.983-1.168-1.326-0.444-0.823-0.425-1.818 0.050-2.623 0.198-0.336 0.538-0.651 1.218-1.28l13.157-12.183c1.159-1.073 2.959-1.038 4.075 0.078s1.151 2.917 0.078 4.075l-12.183 13.157c-0.63 0.68-0.944 1.020-1.28 1.218-0.805 0.475-1.8 0.495-2.623 0.050-0.343-0.185-0.671-0.513-1.326-1.168z"></path>
</symbol>
<symbol id="icon-communication" viewBox="0 0 32 32">
<path stroke-width="2.7826" stroke-miterlimit="4" stroke-linecap="round" stroke-linejoin="round" d="M7.088 14.927c-0.086-0.557-0.131-1.128-0.131-1.71 0-6.147 5.016-11.13 11.204-11.13s11.204 4.983 11.204 11.13c0 1.389-0.256 2.718-0.723 3.944-0.097 0.255-0.146 0.382-0.168 0.481s-0.030 0.168-0.033 0.269c-0.002 0.102 0.011 0.214 0.039 0.438l0.56 4.55c0.061 0.493 0.091 0.739 0.009 0.918-0.072 0.157-0.199 0.281-0.358 0.35-0.181 0.078-0.426 0.042-0.917-0.030l-4.432-0.65c-0.232-0.034-0.347-0.051-0.453-0.050-0.104 0.001-0.176 0.008-0.278 0.030s-0.235 0.071-0.498 0.17c-1.229 0.46-2.561 0.712-3.952 0.712-0.582 0-1.153-0.044-1.711-0.129M9.227 29.913c4.125 0 7.469-3.426 7.469-7.652s-3.344-7.652-7.469-7.652c-4.125 0-7.469 3.426-7.469 7.652 0 0.85 0.135 1.667 0.385 2.43 0.105 0.323 0.158 0.484 0.175 0.594 0.018 0.115 0.021 0.18 0.014 0.296-0.006 0.111-0.034 0.237-0.090 0.489l-0.851 3.842 4.167-0.569c0.227-0.031 0.341-0.047 0.44-0.046 0.105 0.001 0.16 0.006 0.263 0.027 0.097 0.019 0.242 0.070 0.532 0.173 0.763 0.269 1.582 0.415 2.434 0.415z"></path>
</symbol>
<symbol id="icon-location" viewBox="0 0 32 32">
<path stroke-width="1.3333" stroke-miterlimit="4" stroke-linecap="round" stroke-linejoin="round" d="M20 14c0 1.061-0.421 2.078-1.172 2.828s-1.768 1.172-2.828 1.172c-1.061 0-2.078-0.421-2.828-1.172s-1.172-1.768-1.172-2.828c0-1.061 0.421-2.078 1.172-2.828s1.768-1.172 2.828-1.172c1.061 0 2.078 0.421 2.828 1.172s1.172 1.768 1.172 2.828v0z"></path>
<path stroke-width="1.3333" stroke-miterlimit="4" stroke-linecap="round" stroke-linejoin="round" d="M26 14c0 9.523-10 15-10 15s-10-5.477-10-15c0-2.652 1.054-5.196 2.929-7.071s4.419-2.929 7.071-2.929c2.652 0 5.196 1.054 7.071 2.929s2.929 4.419 2.929 7.071v0z"></path>
</symbol>
<symbol id="icon-mail" viewBox="0 0 32 32">
<path stroke-width="1.3333" stroke-miterlimit="4" stroke-linecap="round" stroke-linejoin="round" d="M29 9v14c0 0.796-0.316 1.559-0.879 2.121s-1.326 0.879-2.121 0.879h-20c-0.796 0-1.559-0.316-2.121-0.879s-0.879-1.326-0.879-2.121v-14M29 9c0-0.796-0.316-1.559-0.879-2.121s-1.326-0.879-2.121-0.879h-20c-0.796 0-1.559 0.316-2.121 0.879s-0.879 1.326-0.879 2.121M29 9v0.324c0 0.512-0.131 1.016-0.381 1.463s-0.61 0.823-1.046 1.092l-10 6.153c-0.473 0.291-1.018 0.446-1.573 0.446s-1.1-0.154-1.573-0.446l-10-6.152c-0.436-0.269-0.796-0.644-1.046-1.092s-0.381-0.951-0.381-1.463v-0.325"></path>
</symbol>
<symbol id="icon-phone" viewBox="0 0 32 32">
<path stroke-width="1.3333" stroke-miterlimit="4" stroke-linecap="round" stroke-linejoin="round" d="M3 9c0 11.045 8.955 20 20 20h3c0.796 0 1.559-0.316 2.121-0.879s0.879-1.326 0.879-2.121v-1.829c0-0.688-0.468-1.288-1.136-1.455l-5.897-1.475c-0.587-0.147-1.203 0.073-1.564 0.556l-1.293 1.724c-0.376 0.501-1.025 0.723-1.613 0.507-2.183-0.803-4.165-2.070-5.81-3.714s-2.912-3.627-3.714-5.81c-0.216-0.588 0.005-1.237 0.507-1.613l1.724-1.293c0.484-0.361 0.703-0.979 0.556-1.564l-1.475-5.897c-0.081-0.324-0.268-0.612-0.532-0.818s-0.588-0.318-0.923-0.318h-1.829c-0.796 0-1.559 0.316-2.121 0.879s-0.879 1.326-0.879 2.121v3z"></path>
</symbol>
<symbol id="icon-dark-mode" viewBox="0 0 64 32">
<path fill="#2a2d32" style="fill: var(--color1, #2a2d32)" d="M16 0h32c8.837 0 16 7.163 16 16s-7.163 16-16 16h-32c-8.837 0-16-7.163-16-16s7.163-16 16-16z"></path>
<path fill="#14c57c" style="fill: var(--color2, #14c57c)" d="M42.667 28.224c4.709-2.057 8-6.756 8-12.224s-3.291-10.166-8-12.224c1.633-0.714 3.437-1.109 5.333-1.109 7.364 0 13.333 5.97 13.333 13.333s-5.97 13.333-13.333 13.333c-1.896 0-3.7-0.396-5.333-1.109z"></path>
</symbol>
<symbol id="icon-light-mode" viewBox="0 0 64 32">
<path fill="#e4e5e6" style="fill: var(--color3, #e4e5e6)" d="M16 0h32c8.837 0 16 7.163 16 16s-7.163 16-16 16h-32c-8.837 0-16-7.163-16-16s7.163-16 16-16z"></path>
<path fill="#00b068" style="fill: var(--color4, #00b068)" d="M29.333 16c0 7.364-5.97 13.333-13.333 13.333s-13.333-5.97-13.333-13.333c0-7.364 5.97-13.333 13.333-13.333s13.333 5.97 13.333 13.333z"></path>
</symbol>
<symbol id="icon-close-btn" viewBox="0 0 32 32">
<path stroke-width="2.6667" stroke-miterlimit="4" stroke-linecap="round" stroke-linejoin="round" d="M24 8l-16 16"></path>
<path stroke-width="2.6667" stroke-miterlimit="4" stroke-linecap="round" stroke-linejoin="round" d="M8 8l16 16"></path>
</symbol>
<symbol id="icon-burger-menu" viewBox="0 0 32 32">
<path d="M5.334 23.027v-1.333h21.333v1.333h-21.333zM5.334 16.667v-1.333h21.333v1.333h-21.333zM5.334 10.307v-1.333h21.333v1.333h-21.333z"></path>
</symbol>
<symbol id="icon-success-filled" viewBox="0 0 32 32">
<path fill="#00b068" style="fill: var(--color4, #00b068)" d="M16 2c3.713 0 7.274 1.475 9.899 4.101s4.101 6.186 4.101 9.899-1.475 7.274-4.101 9.899c-2.625 2.626-6.186 4.101-9.899 4.101s-7.274-1.475-9.899-4.101c-2.626-2.625-4.101-6.186-4.101-9.899s1.475-7.274 4.101-9.899c2.626-2.626 6.186-4.101 9.899-4.101zM14.256 18.762l-3.11-3.112c-0.111-0.111-0.244-0.2-0.39-0.26s-0.302-0.091-0.459-0.091c-0.158 0-0.314 0.031-0.459 0.091s-0.278 0.149-0.39 0.26c-0.225 0.225-0.352 0.531-0.352 0.849s0.127 0.624 0.352 0.849l3.96 3.96c0.111 0.112 0.243 0.201 0.389 0.262s0.302 0.092 0.46 0.092 0.314-0.031 0.46-0.092c0.146-0.061 0.278-0.15 0.389-0.262l8.2-8.202c0.113-0.111 0.203-0.243 0.264-0.389s0.094-0.303 0.094-0.461c0.001-0.158-0.030-0.315-0.090-0.462s-0.149-0.28-0.261-0.392c-0.112-0.112-0.245-0.201-0.391-0.261s-0.303-0.091-0.462-0.091-0.315 0.032-0.461 0.094c-0.146 0.061-0.278 0.151-0.39 0.264l-7.354 7.354z"></path>
</symbol>
</defs>
</svg>
